# xmcd
#
# Track frame offsets:
#	150
#	17922
#	35453
#	46942
#	58702
#	77651
#	92137
#	105165
#	118316
#	133568
#	146806
#	160579
#	169736
#	196774
#
# Disc length: 4001 seconds
#
# Revision: 1
# Processed by: cddbd v1.5.2PL0 Copyright (c) Steve Scherf et al.
# Submitted via: audiograbber 1.83.01
#
DISCID=b30f9f0e
DTITLE=Bill Wharton - Recipes 2nd Edition
DYEAR=2005
DGENRE=Blues
TTITLE0=She's a Monkey
TTITLE1=Ten Foot Pole
TTITLE2=Little Brother
TTITLE3=All 'Round Man
TTITLE4=Unplug the Blues
TTITLE5=Your Maytag Done Broke Down
TTITLE6=She's Mine
TTITLE7=Big Bang Theory
TTITLE8=Take This Hammer
TTITLE9=Hangin' With The Band
TTITLE10=Smackers
TTITLE11=The Cyber Blues
TTITLE12=It's Always Twilight Time
TTITLE13=Data Track
EXTD=Originally released 1999. Disc contains receipes and food guide
EXTT0=
EXTT1=
EXTT2=
EXTT3=
EXTT4=
EXTT5=
EXTT6=
EXTT7=
EXTT8=
EXTT9=
EXTT10=
EXTT11=
EXTT12=
EXTT13=
PLAYORDER=
